<?xml version="1.0" standalone="no"?>
<!DOCTYPE svg PUBLIC "-//W3C//DTD SVG 20010904//EN" "http://www.w3.org/TR/2001/REC-SVG-20010904/DTD/svg10.dtd">
<!-- Created using Krita: https://krita.org -->
<svg xmlns="http://www.w3.org/2000/svg" 
    xmlns:xlink="http://www.w3.org/1999/xlink"
    xmlns:krita="http://krita.org/namespaces/svg/krita"
    xmlns:sodipodi="http://sodipodi.sourceforge.net/DTD/sodipodi-0.dtd"
    width="1863pt"
    height="900pt"
    viewBox="0 0 1863 900">
<defs>
<style type="text/css"><![CDATA[
@font-face {
    font-family: Pacifico;
    src: url("/static/fonts/Pacifico-Regular.ttf");
    font-weight: regular;
}
@font-face {
  font-family: NEON;
  src: url("/static/fonts/NEON.TTF");
  font-weight: regular;
}
#shape0, #shape01 {
    text-shadow: 0px 0px 1px #6302ff,
               0px 0px 2px #6302ff,
               0px 0px 3px #6302ff,
               0px 0px 5px #6302ff,
               0px 0px 5px #ffffff,
               0px 0px 7px #6302ff,
               0px 0px 10px #6302ff,
               0px 0px 15px #6302ff,
               0px 0px 15px #ffffff,
               0px 0px 20px #6302ff,
               0px 0px 30px #6200ff,
               0px 0px 45px #6200ff,
               0px 0px 70px #6200ff,
               0px 0px 80px #6200ff,
               0px 0px 100px #6200ff,
               0px 0px 150px #6200ff;
}
#shape07 {
    box-shadow: 0px 0px 1px #6302ff,
               0px 0px 2px #6302ff,
               0px 0px 3px #6302ff,
               0px 0px 5px #6302ff,
               0px 0px 5px #ffffff,
               0px 0px 7px #6302ff,
               0px 0px 10px #6302ff,
               0px 0px 15px #6302ff,
               0px 0px 15px #ffffff,
               0px 0px 20px #6302ff,
               0px 0px 30px #6200ff,
               0px 0px 45px #6200ff,
               0px 0px 70px #6200ff,
               0px 0px 80px #6200ff,
               0px 0px 100px #6200ff,
               0px 0px 150px #6200ff;
}
]]></style>
</defs>
<text id="shape0" krita:useRichText="false" transform="matrix(9.40045361431235 0 0 9.76094764682203 36.8783303049528 665.536862893037)" fill="#ffffff" stroke="#000000" stroke-opacity="0" stroke-width="0" stroke-linecap="square" stroke-linejoin="bevel" font-family="NEON" font-size="26" font-size-adjust="0.266667" font-stretch="normal" font-weight="700" letter-spacing="0" word-spacing="0"><tspan x="0">Cragg's Lounge</tspan></text>
<text id="shape01" krita:useRichText="true" transform="matrix(9.40045361431235 0 0 9.76094764682203 851.312544229871 818.603184626088)" fill="#ffffff" stroke="#000000" stroke-opacity="0" stroke-width="0" stroke-linecap="square" stroke-linejoin="bevel" font-family="Pacifico" font-size="6" font-size-adjust="0.129032" font-stretch="normal" font-style="italic" kerning="0" letter-spacing="0" word-spacing="0"><tspan x="0">&quot;Servin' dreams since 1982&quot;</tspan></text>
<path id="shape04" filter="f1" transform="matrix(9.40045278081399 0 0 9.76094743729582 44.6233269840467 711.691346254914)" fill="#00ffce" fill-rule="evenodd" stroke="#ffffff" stroke-width="2.4" stroke-linecap="round" stroke-linejoin="miter" stroke-miterlimit="1.91999995708466" d="M0 0L189.36 0"/>
<path id="shape07" transform="matrix(9.40045285116884 0 0 9.76094751034868 1146.43934988375 56.2672192800885)" fill="none" stroke="#ffffff" stroke-width="1.68" stroke-linecap="round" stroke-linejoin="round" d="M22.08 6.12L0 13.68L22.44 0L32.4 2.28"/>
<path id="shape12" transform="matrix(9.40045285116884 0 0 9.76094751034868 1480.34345358891 35.1835714939094)" fill="none" stroke="#ffffff" stroke-width="1.68" stroke-linecap="round" stroke-linejoin="round" d="M0 2.88L6.96 0L22.08 10.2L10.56 7.2"/>
<path id="shape2" transform="matrix(9.40045285116884 0 0 9.76094751034868 1474.70318156687 71.4942982367725)" fill="none" stroke="#ffffff" stroke-width="1.68" stroke-linecap="round" stroke-linejoin="round" d="M0 3.48L4.08 0L14.88 15.72L6.12 6.96"/>
<path id="shape3" transform="matrix(9.40045285116884 0 0 9.76094751034868 1244.58008306735 149.972320551997)" fill="none" stroke="#ffffff" stroke-width="1.68" stroke-linecap="round" stroke-linejoin="round" d="M10.08 0L0 7.2L12.36 1.92"/>
<path id="shape4" transform="matrix(9.40045285116884 0 0 9.76094751034868 1385.58688361853 94.9205735547511)" fill="none" stroke="#ffffff" stroke-width="1.68" stroke-linecap="round" stroke-linejoin="round" d="M6 1.08L0.36 0L0 17.16L2.88 8.16"/>
<path id="shape08" transform="matrix(9.40045271973577 0 0 9.76094737387533 1521.39945559086 385.58259349937)" fill="none" stroke="#ffffff" stroke-width="1.68" stroke-linecap="round" stroke-linejoin="round" d="M1.85196 4.12018L0 0.678822L6.7458 0L5.45196 4.00018"/>
<path id="shape13" transform="matrix(9.40045271973577 0 0 9.76094737387533 1512.86347399126 326.237789450065)" fill="none" stroke="#ffffff" stroke-width="1.68" stroke-linecap="round" stroke-linejoin="round" d="M2.64 4.56L0 1.2L6.24 0L6 3.6"/>
<path id="shape21" transform="matrix(9.40045271973577 0 0 9.76094737387533 1485.79016866395 259.472905727307)" fill="none" stroke="#ffffff" stroke-width="1.68" stroke-linecap="round" stroke-linejoin="round" d="M3.12 5.52L0 2.28L6.6 0L6.72 4.08"/>
<path id="shape012" transform="matrix(9.400452274176 0 0 9.76094691122895 1462.10102650257 202.078532000726)" fill="none" stroke="#ffffff" stroke-width="1.68" stroke-linecap="round" stroke-linejoin="round" d="M2.88 5.88L0 2.64L6.96 0L7.2 4.44"/>
<path id="shape013" transform="matrix(9.400452274176 0 0 9.76094691122895 1440.01371520424 139.998903276057)" fill="none" stroke="#ffffff" stroke-width="1.68" stroke-linecap="round" stroke-linejoin="round" d="M2.7096 6.36L0 2.5704L6.4296 0L7.0296 4.44"/>
<path id="shape041" transform="matrix(9.40045241296623 0 0 9.7609470553416 44.4879131379047 450)" fill="#00ffce" fill-rule="evenodd" stroke="#ffffff" stroke-width="2.4" stroke-linecap="round" stroke-linejoin="miter" stroke-miterlimit="1.91999995708466" d="M0 0L189.36 0"/><rect id="shape01" transform="translate(393.365673211355, 396.034929683946)" fill="#ffffff" fill-rule="evenodd" stroke="#ffffff" stroke-width="10.5" stroke-linecap="square" stroke-linejoin="bevel" width="563.165630264934" height="18" rx="17.6448652901324" ry="9"/><rect id="shape011" transform="matrix(1.00000000800734 0 0 1.00000000800734 414.344501338135 350.994081689654)" fill="#ffffff" fill-rule="evenodd" stroke="#ffffff" stroke-width="10.5" stroke-linecap="square" stroke-linejoin="bevel" width="521.314463043146" height="18" rx="16.3336023717688" ry="9"/><rect id="shape02" transform="matrix(0.999999973300064 0 0 0.999999973300064 449.596768915104 306.116827130617)" fill="#ffffff" fill-rule="evenodd" stroke="#ffffff" stroke-width="10.5" stroke-linecap="square" stroke-linejoin="bevel" width="450.780601374167" height="18" rx="14.1236655065584" ry="9"/><rect id="shape03" transform="matrix(0.99999998183909 0 0 0.99999998183909 506.995580479372 260.987747996546)" fill="#ffffff" fill-rule="evenodd" stroke="#ffffff" stroke-width="10.5" stroke-linecap="square" stroke-linejoin="bevel" width="335.168632512661" height="18" rx="10.5013606163815" ry="9"/><rect id="shape041" transform="matrix(0.999999986090115 0 0 0.999999986090115 623.281833086897 216.019512989607)" fill="#ffffff" fill-rule="evenodd" stroke="#ffffff" stroke-width="10.5" stroke-linecap="square" stroke-linejoin="bevel" width="103.414372462267" height="18" rx="10.7723267762214" ry="9"/>
</svg>
