<?xml version="1.0" standalone="no"?>
<!DOCTYPE svg PUBLIC "-//W3C//DTD SVG 20010904//EN" "http://www.w3.org/TR/2001/REC-SVG-20010904/DTD/svg10.dtd">
<!-- Created using Krita: https://krita.org -->
<svg xmlns="http://www.w3.org/2000/svg" 
    xmlns:xlink="http://www.w3.org/1999/xlink"
    xmlns:krita="http://krita.org/namespaces/svg/krita"
    xmlns:sodipodi="http://sodipodi.sourceforge.net/DTD/sodipodi-0.dtd"
    width="245.76pt"
    height="144pt"
    viewBox="0 0 245.76 144">
<defs/>
<path id="shape0" transform="translate(146.608821677826, 23.2064767929212)" fill="none" stroke="#ffffff" stroke-width="1.68" stroke-linecap="round" stroke-linejoin="round" d="M22.08 6.12L0 13.68L22.44 0L32.4 2.28"/><path id="shape1" transform="translate(182.128823638545, 21.0464766736883)" fill="none" stroke="#ffffff" stroke-width="1.68" stroke-linecap="round" stroke-linejoin="round" d="M0 2.88L6.96 0L22.08 10.2L10.56 7.2"/><path id="shape2" transform="translate(181.528823605425, 24.7664768790338)" fill="none" stroke="#ffffff" stroke-width="1.68" stroke-linecap="round" stroke-linejoin="round" d="M0 3.48L4.08 0L14.88 15.72L6.12 6.96"/><path id="shape3" transform="translate(157.048822254118, 32.8064773228453)" fill="none" stroke="#ffffff" stroke-width="1.68" stroke-linecap="round" stroke-linejoin="round" d="M10.08 0L0 7.2L12.36 1.92"/><path id="shape4" transform="translate(172.048823082125, 27.1664770115149)" fill="none" stroke="#ffffff" stroke-width="1.68" stroke-linecap="round" stroke-linejoin="round" d="M6 1.08L0.36 0L0 17.16L2.88 8.16"/><path id="shape0" transform="matrix(0.999999986018432 0 0 0.999999986018432 186.496273021246 56.9445307953771)" fill="none" stroke="#ffffff" stroke-width="1.68" stroke-linecap="round" stroke-linejoin="round" d="M1.85196 4.12018L0 0.678822L6.7458 0L5.45196 4.00018"/><path id="shape1" transform="matrix(0.999999986018432 0 0 0.999999986018432 185.588233617747 50.8647107792991)" fill="none" stroke="#ffffff" stroke-width="1.68" stroke-linecap="round" stroke-linejoin="round" d="M2.64 4.56L0 1.2L6.24 0L6 3.6"/><path id="shape2" transform="matrix(0.999999986018432 0 0 0.999999986018432 182.708233499035 44.0247104973621)" fill="none" stroke="#ffffff" stroke-width="1.68" stroke-linecap="round" stroke-linejoin="round" d="M3.12 5.52L0 2.28L6.6 0L6.72 4.08"/><path id="shape01" transform="matrix(0.99999993862074 0 0 0.99999993862074 180.188233395164 38.1447102549952)" fill="none" stroke="#ffffff" stroke-width="1.68" stroke-linecap="round" stroke-linejoin="round" d="M2.88 5.88L0 2.64L6.96 0L7.2 4.44"/><path id="shape01" transform="matrix(0.99999993862074 0 0 0.99999993862074 177.838632620816 31.7847099928432)" fill="none" stroke="#ffffff" stroke-width="1.68" stroke-linecap="round" stroke-linejoin="round" d="M2.7096 6.36L0 2.5704L6.4296 0L7.0296 4.44"/>
</svg>
