<?xml version="1.0" standalone="no"?>
<!DOCTYPE svg PUBLIC "-//W3C//DTD SVG 20010904//EN" "http://www.w3.org/TR/2001/REC-SVG-20010904/DTD/svg10.dtd">
<!-- Created using Krita: https://krita.org -->
<svg xmlns="http://www.w3.org/2000/svg" 
    xmlns:xlink="http://www.w3.org/1999/xlink"
    xmlns:krita="http://krita.org/namespaces/svg/krita"
    xmlns:sodipodi="http://sodipodi.sourceforge.net/DTD/sodipodi-0.dtd"
    width="245.76pt"
    height="144pt"
    viewBox="0 0 245.76 144">
<defs/>
<path id="shape0" transform="translate(178.268049206543, 43.8198221843476)" fill="none" stroke="#ffffff" stroke-width="1.68" stroke-linecap="round" stroke-linejoin="round" d="M1.85196 4.12018L0 0.678822L6.7458 0L5.45196 4.00018"/><path id="shape1" transform="translate(177.360009790348, 37.7400020832642)" fill="none" stroke="#ffffff" stroke-width="1.68" stroke-linecap="round" stroke-linejoin="round" d="M2.64 4.56L0 1.2L6.24 0L6 3.6"/><path id="shape2" transform="translate(174.480009631371, 30.9000017056932)" fill="none" stroke="#ffffff" stroke-width="1.68" stroke-linecap="round" stroke-linejoin="round" d="M3.12 5.52L0 2.28L6.6 0L6.72 4.08"/><path id="shape0" transform="matrix(0.999999952602307 0 0 0.999999952602307 171.960009492266 25.0200013811147)" fill="none" stroke="#ffffff" stroke-width="1.68" stroke-linecap="round" stroke-linejoin="round" d="M2.88 5.88L0 2.64L6.96 0L7.2 4.44"/><path id="shape01" transform="matrix(0.999999952602307 0 0 0.999999952602307 169.610408685066 18.66000103004)" fill="none" stroke="#ffffff" stroke-width="1.68" stroke-linecap="round" stroke-linejoin="round" d="M2.7096 6.36L0 2.5704L6.4296 0L7.0296 4.44"/>
</svg>
