<?xml version="1.0" standalone="no"?>
<!DOCTYPE svg PUBLIC "-//W3C//DTD SVG 20010904//EN" "http://www.w3.org/TR/2001/REC-SVG-20010904/DTD/svg10.dtd">
<!-- Created using Krita: https://krita.org -->
<svg xmlns="http://www.w3.org/2000/svg" 
    xmlns:xlink="http://www.w3.org/1999/xlink"
    xmlns:krita="http://krita.org/namespaces/svg/krita"
    xmlns:sodipodi="http://sodipodi.sourceforge.net/DTD/sodipodi-0.dtd"
    width="245.76pt"
    height="144pt"
    viewBox="0 0 245.76 144">
<defs/>
<path id="shape0" transform="translate(71.946933310473, 24.0981992313119)" fill="#ffffff" fill-rule="evenodd" stroke="#ffffff" stroke-width="1.68" stroke-linecap="square" stroke-linejoin="miter" stroke-miterlimit="1.92" d="M48.3744 8.98982C43.1301 3.75964 34.9853 0.763034 23.9397 0C13.2831 0.66914 5.30319 3.66545 0 8.98893Z"/><path id="shape0" transform="matrix(0.999999973392065 0 0 0.999999973392065 68.1000015285424 37.5000008417084)" fill="#ffffff" fill-rule="evenodd" stroke="#ffffff" stroke-width="1.68" stroke-linecap="square" stroke-linejoin="miter" stroke-miterlimit="1.91999995708466" d="M55.92 1.2C55.5968 0.742102 55.3305 0.342102 55.1212 0L0.740263 0C0.491983 0.37032 0.245229 0.73032 0 1.08Z"/><path id="shape01" transform="matrix(0.99999996717219 0 0 0.99999996717219 65.9041180941087 42.3521595799109)" fill="#ffffff" fill-rule="evenodd" stroke="#ffffff" stroke-width="1.68" stroke-linecap="square" stroke-linejoin="miter" stroke-miterlimit="1.91999995708466" d="M60.6809 0.446587C60.6131 0.331732 60.5869 0.24546 60.4709 0.12784L0.275772 0C0.100203 0.154871 0.0708781 0.333454 0 0.509117Z"/><path id="shape02" transform="matrix(0.999999946918936 0 0 0.999999946918936 64.4212446797384 45.6112512182054)" fill="#ffffff" fill-rule="evenodd" stroke="#ffffff" stroke-width="0.96" stroke-linecap="round" stroke-linejoin="miter" stroke-miterlimit="1.92" d="M47.8988 0.303749C53.25 0.317957 58.2825 0.267041 63.6338 0.281249C63.6035 0.203752 63.5848 0.148806 63.5363 0.0937486L47.6588 0.0937494M44.3438 0L0 0.273745C0.037005 0.187112 0.0115588 0.182885 0.0599269 0.112457C9.85746 0.13847 24.5087 0.201491 44.0138 0.236248"/><path id="shape1" transform="translate(63.7200005620843, 49.0800004329425)" fill="none" stroke="#ffffff" stroke-width="0.48" stroke-linecap="square" stroke-linejoin="miter" stroke-miterlimit="2" d="M0 0L42.4839 0M49.06 0L65.28 0"/><path id="shape2" transform="translate(63.8400005631428, 47.6236411482052)" fill="none" stroke="#ffffff" stroke-width="0.48" stroke-linecap="square" stroke-linejoin="miter" stroke-miterlimit="2" d="M0 0.0163593L43.2018 0M49.2 0.0163593L64.9228 0.0163593"/>
</svg>
